<?xml version="1.0" encoding="UTF-8"?><svg id="b" xmlns="http://www.w3.org/2000/svg" viewBox="0 0 64 64"><g id="c"><path d="m64,64H0V0h64v64Z" fill="#ffd400"/><path d="m49.64,19.17c1.58,0,2.86-1.28,2.86-2.86s-1.28-2.86-2.86-2.86c-1.58,0-2.86,1.28-2.86,2.86h0c0,.44.11.86.32,1.25l-7.25,7.25c-2.13-2.4-5.7-2.88-8.38-1.11l-4.7-4.37c.34-.54.53-1.17.55-1.81,0-2.02-1.64-3.66-3.66-3.66s-3.66,1.64-3.66,3.66,1.64,3.66,3.66,3.66h0c.73-.02,1.43-.26,2.02-.69l4.57,4.26c-1.87,1.97-2.28,4.92-1.02,7.33l-9.5,3.6c-1.14-2.13-3.79-2.93-5.92-1.79-2.13,1.14-2.93,3.79-1.79,5.92,1.14,2.13,3.79,2.93,5.92,1.79,1.43-.77,2.32-2.26,2.3-3.88,0-.17-.02-.34-.05-.5l9.95-3.77c1.56,1.83,4.02,2.63,6.36,2.05l2.45,7.17c-2.1.8-3.15,3.16-2.35,5.26.8,2.1,3.16,3.15,5.26,2.35,2.1-.8,3.15-3.16,2.35-5.26-.59-1.53-2.03-2.56-3.67-2.62l-2.55-7.47c1.41-.72,2.51-1.93,3.09-3.4h5.02c.34,1.21,1.44,2.05,2.7,2.06,1.58,0,2.86-1.28,2.86-2.86s-1.28-2.86-2.86-2.86c-1.26,0-2.36.85-2.7,2.06h-4.64c.04-.26.07-.51.08-.77,0-1.05-.27-2.09-.77-3.01l7.42-7.42c.43.28.93.44,1.45.45Zm-6.75,27.27c0,1.37-1.11,2.48-2.48,2.48-1.37,0-2.48-1.11-2.48-2.48,0-1.37,1.11-2.48,2.48-2.48h0c1.37,0,2.48,1.11,2.48,2.48Zm-21.3-28.92c0-1.14.92-2.06,2.06-2.06s2.06.92,2.06,2.06c0,1.14-.92,2.06-2.06,2.06h0c-1.14,0-2.06-.92-2.06-2.06Zm13.43,16.56c-2.72,0-4.92-2.2-4.92-4.92s2.2-4.92,4.92-4.92,4.92,2.2,4.92,4.92c0,2.72-2.21,4.92-4.92,4.92h0Z" fill="#fff"/></g></svg>