<svg id="Ebene_1" data-name="Ebene 1" xmlns="http://www.w3.org/2000/svg" viewBox="0 0 16 16"><rect width="16" height="16" fill="#79a547"/><path d="M13.14619,4.24807a.89649.89649,0,1,0-.89648-.89649.87832.87832,0,0,0,.09888.39118L10.07637,6.015A2.02,2.02,0,0,0,7.45,5.66866L5.97822,4.29805a1.11305,1.11305,0,0,0,.17139-.56628A1.14649,1.14649,0,1,0,5.00313,4.87825a1.11522,1.11522,0,0,0,.6322-.21594l1.4328,1.33435a1.99545,1.99545,0,0,0-.31958,2.29608l-2.97589,1.128a1.36945,1.36945,0,1,0,.1626.63684,1.35654,1.35654,0,0,0-.01587-.15766L7.03633,8.71846A1.98819,1.98819,0,0,0,9.028,9.362l.76843,2.24689a1.27693,1.27693,0,1,0,.49945-.08374L9.4955,9.18483A2.044,2.044,0,0,0,10.463,8.119h1.57342a.88511.88511,0,0,0,.84607.6466.89648.89648,0,1,0,0-1.793.88526.88526,0,0,0-.846.64636H10.58314a2.00532,2.00532,0,0,0,.02448-.24219,2.0167,2.0167,0,0,0-.24207-.944l2.3263-2.32629A.87148.87148,0,0,0,13.14619,4.24807ZM11.03,12.79329a.77686.77686,0,1,1-.77685-.77685A.77791.77791,0,0,1,11.03,12.79329ZM4.35664,3.73177a.64649.64649,0,1,1,.64649.64648A.64725.64725,0,0,1,4.35664,3.73177Zm4.208,5.188a1.543,1.543,0,1,1,1.543-1.543A1.545,1.545,0,0,1,8.56465,8.91976Z" fill="#fff"/></svg>