<svg id="icon-info" xmlns="http://www.w3.org/2000/svg" width="31.999" height="32" viewBox="0 0 31.999 32">
  <g id="Sustracción_1" data-name="Sustracción 1" transform="translate(13725 -1442)">
    <path d="M -13709.0009765625 1472.500122070312 C -13712.8740234375 1472.500122070312 -13716.5146484375 1470.991821289062 -13719.2529296875 1468.2529296875 C -13721.9912109375 1465.514404296875 -13723.5 1461.873291015625 -13723.5 1458.000244140625 C -13723.5 1454.127197265625 -13721.9912109375 1450.486206054688 -13719.2529296875 1447.747924804688 C -13716.5146484375 1445.0087890625 -13712.8740234375 1443.50048828125 -13709.0009765625 1443.50048828125 C -13705.126953125 1443.50048828125 -13701.4853515625 1445.0087890625 -13698.7470703125 1447.747680664062 C -13696.0087890625 1450.486450195312 -13694.5009765625 1454.127563476562 -13694.5009765625 1458.000244140625 C -13694.5009765625 1461.873046875 -13696.0087890625 1465.51416015625 -13698.7470703125 1468.2529296875 C -13701.4853515625 1470.991821289062 -13705.126953125 1472.500122070312 -13709.0009765625 1472.500122070312 Z M -13711.4990234375 1454.4990234375 L -13711.4990234375 1455.9990234375 L -13711.4990234375 1465.998413085938 L -13711.4990234375 1467.498413085938 L -13709.9990234375 1467.498413085938 L -13706.9990234375 1467.498413085938 L -13705.4990234375 1467.498413085938 L -13705.4990234375 1465.998413085938 L -13705.4990234375 1455.9990234375 L -13705.4990234375 1454.4990234375 L -13706.263671875 1454.4990234375 C -13705.7880859375 1453.9677734375 -13705.4990234375 1453.266723632812 -13705.4990234375 1452.499389648438 C -13705.4990234375 1450.846069335938 -13706.845703125 1449.5009765625 -13708.5009765625 1449.5009765625 C -13710.154296875 1449.5009765625 -13711.4990234375 1450.846069335938 -13711.4990234375 1452.499389648438 C -13711.4990234375 1453.266723632812 -13711.2099609375 1453.9677734375 -13710.7353515625 1454.4990234375 L -13711.4990234375 1454.4990234375 Z" stroke="none"/>
    <path d="M -13709.0009765625 1471.000122070312 C -13705.52734375 1471.000122070312 -13702.2626953125 1469.647827148438 -13699.8076171875 1467.1923828125 C -13697.3525390625 1464.736938476562 -13696.0009765625 1461.472412109375 -13696.0009765625 1458.000244140625 C -13696.0009765625 1454.528076171875 -13697.3525390625 1451.263671875 -13699.8076171875 1448.808227539062 C -13702.2626953125 1446.352783203125 -13705.52734375 1445.00048828125 -13709.0009765625 1445.00048828125 C -13712.47265625 1445.00048828125 -13715.7373046875 1446.352783203125 -13718.1923828125 1448.80859375 C -13720.6474609375 1451.263671875 -13722 1454.527954101562 -13722 1458.000244140625 C -13722 1461.47265625 -13720.6474609375 1464.736938476562 -13718.1923828125 1467.1923828125 C -13715.7373046875 1469.647827148438 -13712.47265625 1471.000122070312 -13709.0009765625 1471.000122070312 M -13712.9990234375 1452.9990234375 L -13712.9716796875 1452.9990234375 C -13712.9892578125 1452.8349609375 -13712.9990234375 1452.668212890625 -13712.9990234375 1452.499389648438 C -13712.9990234375 1450.018920898438 -13710.9814453125 1448.0009765625 -13708.5009765625 1448.0009765625 C -13706.0185546875 1448.0009765625 -13703.9990234375 1450.018920898438 -13703.9990234375 1452.499389648438 C -13703.9990234375 1452.668212890625 -13704.0087890625 1452.8349609375 -13704.0263671875 1452.9990234375 L -13703.9990234375 1452.9990234375 L -13703.9990234375 1468.998413085938 L -13712.9990234375 1468.998413085938 L -13712.9990234375 1452.9990234375 M -13709.0009765625 1474.000122070312 C -13713.2744140625 1474.000122070312 -13717.2919921875 1472.335693359375 -13720.3134765625 1469.3134765625 C -13723.3359375 1466.29150390625 -13725 1462.273681640625 -13725 1458.000244140625 C -13725 1453.726806640625 -13723.3359375 1449.709106445312 -13720.3134765625 1446.687133789062 C -13717.2919921875 1443.664916992188 -13713.2744140625 1442.00048828125 -13709.0009765625 1442.00048828125 C -13704.7265625 1442.00048828125 -13700.7080078125 1443.664916992188 -13697.6865234375 1446.687133789062 C -13694.6650390625 1449.709106445312 -13693.0009765625 1453.726806640625 -13693.0009765625 1458.000244140625 C -13693.0009765625 1462.273681640625 -13694.6650390625 1466.29150390625 -13697.6865234375 1469.3134765625 C -13700.7080078125 1472.335693359375 -13704.7265625 1474.000122070312 -13709.0009765625 1474.000122070312 Z M -13709.9990234375 1455.9990234375 L -13709.9990234375 1465.998413085938 L -13706.9990234375 1465.998413085938 L -13706.9990234375 1455.9990234375 L -13709.9990234375 1455.9990234375 Z M -13708.5009765625 1451.0009765625 C -13709.3271484375 1451.0009765625 -13709.9990234375 1451.673217773438 -13709.9990234375 1452.499389648438 C -13709.9990234375 1453.327514648438 -13709.3271484375 1454.001220703125 -13708.5009765625 1454.001220703125 C -13707.6728515625 1454.001220703125 -13706.9990234375 1453.327514648438 -13706.9990234375 1452.499389648438 C -13706.9990234375 1451.673217773438 -13707.6728515625 1451.0009765625 -13708.5009765625 1451.0009765625 Z" stroke="none" fill="#000"/>
  </g>
</svg>
