<svg id="icon-parking" xmlns="http://www.w3.org/2000/svg" width="32" height="32" viewBox="0 0 32 32">
  <path id="Trazado_3460" data-name="Trazado 3460" d="M1.32,0H4.334V-5.3a15.588,15.588,0,0,0,1.738.088c3.036,0,5.962-1.452,5.962-5.3,0-4.312-3.388-5.1-6.468-5.1a23.28,23.28,0,0,0-4.246.374ZM5.808-13.024c1.518,0,3.058.528,3.058,2.464,0,2.266-1.628,2.728-3.234,2.728a8.58,8.58,0,0,1-1.3-.088v-4.994A8.579,8.579,0,0,1,5.808-13.024Z" transform="translate(10 24)"/>
  <path id="Ellipse_10" data-name="Ellipse 10" d="M16,3A13,13,0,0,0,6.808,25.192,13,13,0,0,0,25.192,6.808,12.915,12.915,0,0,0,16,3m0-3A16,16,0,1,1,0,16,16,16,0,0,1,16,0Z"/>
</svg>
