<svg id="icon-bus" xmlns="http://www.w3.org/2000/svg" width="32" height="32" viewBox="0 0 32 32">
  <g id="Grupo_1050" data-name="Grupo 1050" transform="translate(-743 -742)">
    <path id="Trazado_3461" data-name="Trazado 3461" d="M9.966,0H12.98V-15.4H9.966v6.27H4.334V-15.4H1.32V0H4.334V-6.446H9.966Z" transform="translate(752 766)"/>
    <path id="Ellipse_10" data-name="Ellipse 10" d="M16,3A13,13,0,0,0,6.808,25.192,13,13,0,0,0,25.192,6.808,12.915,12.915,0,0,0,16,3m0-3A16,16,0,1,1,0,16,16,16,0,0,1,16,0Z" transform="translate(743 742)"/>
  </g>
</svg>
