<?xml version="1.0" encoding="UTF-8"?><svg id="b" xmlns="http://www.w3.org/2000/svg" viewBox="0 0 64 64"><g id="c"><path d="m64,64H0V0h64v64Z" style="fill:#ffd400;"/><path d="m42.05,47.31h-23.57c-.59,0-1.07-.48-1.07-1.07V15.32c0-.59.48-1.07,1.07-1.07h23.57c.59,0,1.07.48,1.07,1.07v30.92c0,.59-.48,1.07-1.07,1.07Z" style="fill:#fff;"/><path d="m19.24,16.09h1.85s.07.03.07.07v29.25s-.03.07-.07.07h-1.85s-.07-.03-.07-.07v-29.25s.03-.07.07-.07Z" style="fill:#ffd400;"/><rect x="24.75" y="19.66" width="14.69" height="13.78" style="fill:#ffe780;"/><path d="m26.64,29.19h10.92s.05.03.05.07v1.85s-.02.07-.05.07h-10.92s-.05-.03-.05-.07v-1.85s.02-.07.05-.07Z" style="fill:#fff;"/><path d="m48.63,39.2v9.52c0,.59-.48,1.07-1.07,1.07h-21.73c-.59,0-1.07-.48-1.07-1.07v-9.52c0-.59.48-1.07,1.07-1.07h21.73c.59,0,1.07.48,1.07,1.07Z" style="fill:#fff;"/><path d="m47.65,50.25h-21.91c-.8,0-1.44-.65-1.44-1.44v-9.69c0-.8.65-1.44,1.44-1.44h21.91c.8,0,1.44.65,1.44,1.44v9.69c0,.8-.65,1.44-1.44,1.44Zm-21.91-11.66c-.29,0-.53.24-.53.53v9.69c0,.29.24.53.53.53h21.91c.29,0,.53-.24.53-.53v-9.69c0-.29-.24-.53-.53-.53h-21.91Z" style="fill:#ffd400;"/><path d="m32.22,46.83h-4.31v-5.97h1.54v4.81h2.77v1.15Z" style="fill:#ffd400;"/><path d="m38.95,43.85c0,.95-.27,1.71-.82,2.27s-1.3.84-2.26.84-1.71-.28-2.26-.84-.82-1.31-.82-2.27.27-1.72.82-2.27,1.3-.84,2.26-.84,1.71.28,2.26.84c.55.56.82,1.31.82,2.27Zm-2.04,1.51c.15-.18.26-.4.33-.64.07-.25.11-.54.11-.87,0-.36-.04-.66-.12-.91-.08-.25-.19-.45-.32-.61-.14-.16-.29-.28-.47-.35-.18-.07-.36-.11-.56-.11s-.38.03-.55.1c-.17.07-.33.18-.47.34-.13.15-.24.36-.33.62-.08.26-.13.57-.13.92s.04.66.12.91c.08.25.19.45.32.61s.29.27.47.35c.18.07.37.11.57.11s.39-.04.57-.11.34-.19.47-.35Z" style="fill:#ffd400;"/><path d="m45.41,46.49c-.27.1-.62.21-1.06.31-.44.1-.88.16-1.32.16-1.02,0-1.81-.28-2.38-.83-.57-.55-.86-1.31-.86-2.29s.29-1.67.87-2.24c.58-.57,1.39-.85,2.43-.85.39,0,.77.03,1.12.11s.75.21,1.19.42v1.4h-.17c-.08-.06-.18-.14-.33-.24-.14-.1-.28-.19-.42-.26-.15-.09-.34-.16-.54-.22-.21-.06-.43-.09-.66-.09-.27,0-.52.04-.74.12-.22.08-.42.2-.6.37-.17.16-.3.36-.4.61-.1.25-.15.53-.15.86,0,.66.17,1.17.53,1.52s.87.52,1.55.52c.06,0,.12,0,.19,0s.14,0,.19-.01v-1.17h-1.19v-1.13h2.75v2.95Z" style="fill:#ffd400;"/><polygon points="35.45 25 28.75 25 32.1 28.35 35.45 25" style="fill:#fff;"/><line x1="32.1" y1="21.92" x2="32.1" y2="25.45" style="fill:none; stroke:#fff; stroke-miterlimit:10; stroke-width:2px;"/></g></svg>