<?xml version="1.0" encoding="UTF-8"?><svg id="b" xmlns="http://www.w3.org/2000/svg" viewBox="0 0 64 64"><g id="c"><path d="m64,64H0V0h64v64Z" style="fill:#ffd400;"/><path d="m19,21c.55,0,1-.45,1-1s-.45-1-1-1-1,.45-1,1,.45,1,1,1Zm3-1c0-.55.45-1,1-1h22c.55,0,1,.45,1,1s-.45,1-1,1h-22c-.55,0-1-.44-1-1Zm-6-3h32v6H16v-6Zm3,12c.55,0,1-.45,1-1s-.45-1-1-1-1,.45-1,1,.45,1,1,1Zm3-1c0-.55.45-1,1-1h22c.55,0,1,.45,1,1s-.45,1-1,1h-22c-.55,0-1-.44-1-1Zm-6-3h32v6H16v-6Zm3,12c.55,0,1-.45,1-1s-.45-1-1-1-1,.45-1,1,.45,1,1,1Zm3-1c0-.55.45-1,1-1h22c.55,0,1,.45,1,1s-.45,1-1,1h-22c-.55,0-1-.44-1-1Zm-6-3h32v6H16v-6Zm6,11c0-.55.45-1,1-1h22c.55,0,1,.45,1,1s-.45,1-1,1h-22c-.55,0-1-.44-1-1Zm-3,1c.55,0,1-.45,1-1s-.45-1-1-1-1,.45-1,1,.45,1,1,1Zm-3-4h32v6H16v-6Z" style="fill:#fff; fill-rule:evenodd;"/><path d="m50.92,39.01c0,5.8-4.7,10.5-10.5,10.5s-10.5-4.7-10.5-10.5,4.7-10.5,10.5-10.5,10.5,4.7,10.5,10.5Z" style="fill:#ffd400;"/><path d="m48.21,37.81l-2.43-.69c-.07-.19-.14-.38-.23-.56l1.22-2.2c.06-.11.04-.25-.05-.34l-1.31-1.31c-.09-.09-.23-.11-.34-.05l-2.2,1.22c-.18-.09-.37-.16-.56-.23l-.69-2.43c-.04-.12-.15-.21-.28-.21h-1.85c-.13,0-.24.08-.27.21l-.69,2.43c-.19.07-.38.14-.56.23l-2.2-1.22c-.11-.06-.25-.04-.34.05l-1.31,1.31c-.09.09-.11.23-.05.34l1.22,2.2c-.09.18-.16.37-.23.56l-2.43.69c-.12.04-.21.15-.21.28v1.85c0,.13.08.24.21.27l2.43.69c.07.19.14.38.23.56l-1.22,2.2c-.06.11-.04.25.05.34l1.31,1.31c.09.09.23.11.34.05l2.2-1.22c.18.09.37.16.56.23l.69,2.43c.04.12.15.21.28.21h1.85c.13,0,.24-.08.27-.21l.69-2.43c.19-.07.38-.14.56-.23l2.2,1.22c.11.06.25.04.34-.05l1.31-1.31c.09-.09.11-.23.05-.34l-1.22-2.2c.09-.18.16-.37.23-.56l2.43-.69c.12-.04.21-.15.21-.28v-1.85c0-.13-.08-.24-.21-.28Zm-7.79,4.63c-1.89,0-3.43-1.53-3.43-3.43s1.53-3.43,3.43-3.43,3.43,1.53,3.43,3.43-1.53,3.43-3.43,3.43Zm1.44-3.43c0,.79-.64,1.44-1.44,1.44s-1.44-.64-1.44-1.44.64-1.44,1.44-1.44,1.44.64,1.44,1.44Z" style="fill:#fff;"/><path d="m48.92,47.58h-8v-8h8v8Z" style="fill:#fff; stroke:#ffd400; stroke-miterlimit:10;"/><polygon points="47.35 43.65 45.42 43.65 45.42 41.08 44.42 41.08 44.42 43.65 42.49 43.65 44.92 46.08 47.35 43.65" style="fill:#ffd400;"/></g></svg>