<?xml version="1.0" encoding="UTF-8"?><svg id="b" xmlns="http://www.w3.org/2000/svg" viewBox="0 0 64 64"><g id="c"><path d="m64,64H0V0h64v64Z" fill="none"/><path d="m47.49,20.74c1.39,0,2.51-1.12,2.51-2.51s-1.12-2.51-2.51-2.51c-1.39,0-2.51,1.12-2.51,2.51h0c0,.38.1.76.28,1.1l-6.37,6.37c-1.87-2.11-5.01-2.53-7.36-.97l-4.12-3.84c.3-.48.47-1.02.48-1.59,0-1.77-1.44-3.21-3.21-3.21-1.77,0-3.21,1.44-3.21,3.21s1.44,3.21,3.21,3.21h0c.64-.02,1.26-.23,1.77-.61l4.02,3.74c-1.64,1.73-2,4.32-.9,6.43l-8.34,3.16c-1-1.87-3.33-2.57-5.2-1.57-1.87,1-2.57,3.33-1.57,5.2,1,1.87,3.33,2.57,5.2,1.57,1.26-.67,2.03-1.99,2.02-3.41,0-.15-.02-.3-.04-.44l8.73-3.31c1.37,1.61,3.53,2.31,5.58,1.8l2.15,6.3c-1.85.71-2.77,2.78-2.06,4.62.71,1.85,2.78,2.77,4.62,2.06,1.85-.71,2.77-2.78,2.06-4.62-.51-1.34-1.78-2.25-3.22-2.3l-2.24-6.56c1.24-.63,2.2-1.7,2.71-2.99h4.41c.3,1.07,1.27,1.8,2.37,1.81,1.39,0,2.51-1.12,2.51-2.51s-1.12-2.51-2.51-2.51c-1.11,0-2.07.75-2.37,1.81h-4.07c.04-.22.06-.45.07-.68,0-.92-.24-1.83-.68-2.65l6.52-6.52c.38.25.82.39,1.27.4Zm-5.93,23.95c0,1.2-.97,2.18-2.18,2.18-1.2,0-2.18-.97-2.18-2.18,0-1.2.97-2.18,2.18-2.18h0c1.2,0,2.18.98,2.18,2.18Zm-18.7-25.39c0-1,.81-1.81,1.81-1.81s1.81.81,1.81,1.81c0,1-.81,1.81-1.81,1.81h0c-1,0-1.81-.81-1.81-1.81Zm11.79,14.54c-2.39,0-4.32-1.94-4.32-4.32s1.94-4.32,4.32-4.32,4.32,1.94,4.32,4.32c0,2.39-1.94,4.32-4.32,4.32h0Z" fill="#fff"/></g></svg>