<svg id="Ebene_1" data-name="Ebene 1" xmlns="http://www.w3.org/2000/svg" viewBox="0 0 16 16"><path d="M2,0V16H14V4L10,0Z" fill="#efefef"/><path d="M10,3.98V0l4,4Z" fill="#fff" opacity="0.65" style="isolation:isolate"/><path d="M2,0V16H14V4h-.012l.004-.008L10.008.006,10,.014V0ZM3,1H9V5h4V15H3Zm7,.412L12.586,4H10Z" fill="#999"/><path d="M13.68376,10.58311h.48451a.33189.33189,0,0,0,.332-.33178V8.17924a.07339.07339,0,0,0-.07344-.07327H13.844a.07335.07335,0,0,0-.07344.07325v.795h-.64388V8.17924A.07335.07335,0,0,0,13.0533,8.106h-.5828a.0734.0734,0,0,0-.07345.07327v.79494h-.64384V8.17924a.0734.0734,0,0,0-.07344-.07327H11.097a.0734.0734,0,0,0-.07346.07327v.79494h-.64387V8.17924A.0734.0734,0,0,0,10.3062,8.106H9.72339A.07341.07341,0,0,0,9.65,8.17924v.79494H9.00612V8.17924A.07339.07339,0,0,0,8.93268,8.106H8.34985a.07341.07341,0,0,0-.07343.07327v2.07189a.3319.3319,0,0,0,.33182.332H9.093l-.81523,4.57254a.33173.33173,0,0,0,.32661.39033h5.568a.33171.33171,0,0,0,.32657-.39033Zm-1.50467,3.09738H10.598V12.243a.79057.79057,0,0,1,1.58113,0Z" fill="#b9b9b9"/><rect x="11.20809" y="6.97727" width="0.36051" height="1.12868" fill="#b9b9b9"/><path d="M11.20809,4.36234V7.134a.06741.06741,0,0,0,.08861.064l3.93056-1.30176-3.9198-1.60069a.07211.07211,0,0,0-.09937.06676Z" fill="#79a547"/></svg>