<?xml version="1.0" encoding="UTF-8"?><svg id="b" xmlns="http://www.w3.org/2000/svg" viewBox="0 0 13.92 14"><g id="c"><path d="m7,0l3.5,3.5v10.5H0V0h7Z" fill="#efefef"/><path d="m0,0v14h10.5V3.5h-.01,0S7.01,0,7.01,0h0s0,0,0,0H0Zm.88.88h5.25v3.5h3.5v8.75H.88V.88Zm6.12.36l2.26,2.26h-2.26V1.24Z" fill="#999"/><path d="m8.68,8.84v-3.78h-.69v3.78h-2.75v4.81h2.18v-1.03c0-.57.41-1.03.92-1.03s.92.46.92,1.03v1.03h2.18v-4.81h-2.75Z" fill="#ffd400"/><path d="m12.34,7.13h-1.06v.69h-.59v-.69h-1.18v.69h-.59v-.69h-1.18v.69h-.59v-.69h-1.18v.69h-.59v-.69h-1.06c-.07,0-.12.06-.12.14v2.47c0,.08.05.14.12.14h.57v4.12h2.86v-1.37c0-.38.26-.69.57-.69s.57.31.57.69v1.37h2.86v-4.12h.57c.07,0,.12-.06.12-.14v-2.47c0-.08-.05-.14-.12-.14Zm-1.26,6.19h-1.49v-.69c0-.76-.57-1.37-1.26-1.37s-1.26.62-1.26,1.37v.69h-1.49v-3.44h5.5v3.44Z" fill="#edb026"/><g><path d="m10.05,5.06l-2.06.69v-1.37l2.06.69h0Z" fill="#ea341c"/><polygon points="7.99 4.37 7.99 5.75 10.05 5.06 7.99 4.37 7.99 4.37" fill="#ce281b"/></g><path d="m11.77,9.19h-6.87v-.69h6.87v.69Z" fill="#ffe266"/></g></svg>