<?xml version="1.0" encoding="UTF-8"?>
<svg id="Ebene_2" data-name="Ebene 2" xmlns="http://www.w3.org/2000/svg" viewBox="0 0 11.64 14">
  <defs>
    <style>
      .cls-1 {
        fill: #ea341c;
      }

      .cls-2 {
        fill: #ffe266;
      }

      .cls-3 {
        fill: #edb026;
      }

      .cls-4 {
        fill: #ffce00;
      }

      .cls-5 {
        fill: #ffd400;
      }

      .cls-6 {
        fill: #efefef;
      }

      .cls-7 {
        fill: #999;
      }

      .cls-8 {
        fill: #ce281b;
      }

      .cls-9 {
        fill: #fff;
        isolation: isolate;
        opacity: .65;
      }
    </style>
  </defs>
  <g id="Ebene_1-2" data-name="Ebene 1">
    <g>
      <path class="cls-6" d="m0,0v14h10.5V3.5L7,0H0Z"/>
      <path class="cls-9" d="m7,3.48V0l3.5,3.5-3.5-.02Z"/>
      <path class="cls-7" d="m0,0v14h10.5V3.5h-.01,0S7.01,0,7.01,0h0s0,0,0,0H0Zm.88.88h5.25v3.5h3.5v8.75H.88V.88Zm6.12.36l2.26,2.26h-2.26V1.24Z"/>
    </g>
    <g>
      <g>
        <path class="cls-5" d="m8.39,13.69v-1.07c0-.55-.4-1-.89-1s-.89.45-.89,1v1.07h-2.24v-4.89h6.27v4.89h-2.24Z"/>
        <path class="cls-3" d="m10.32,9.11v4.26h-1.61v-.75c0-.73-.54-1.32-1.2-1.32s-1.2.59-1.2,1.32v.75h-1.61v-4.26h5.64m.63-.63h-6.9v5.52h2.87v-1.38c0-.38.26-.69.57-.69s.57.31.57.69v1.38h2.87v-5.52h0Z"/>
      </g>
      <g>
        <polygon class="cls-2" points="3.71 9.52 3.71 7.45 4.2 7.45 4.2 8.14 5.49 8.14 5.49 7.45 5.98 7.45 5.98 8.14 7.26 8.14 7.26 7.45 7.75 7.45 7.75 8.14 9.03 8.14 9.03 7.45 9.52 7.45 9.52 8.14 10.81 8.14 10.81 7.45 11.3 7.45 11.3 9.52 3.71 9.52"/>
        <path class="cls-3" d="m10.95,8.48v.69h-6.9v-.69h6.9m.57-1.38h-1.06v.69h-.59v-.69h-1.18v.69h-.59v-.69h-1.18v.69h-.59v-.69h-1.18v.69h-.59v-.69h-1.06c-.07,0-.12.06-.12.14v2.48c0,.08.05.14.12.14h8.04c.07,0,.12-.06.12-.14v-2.48c0-.08-.05-.14-.12-.14h0Z"/>
      </g>
      <rect class="cls-4" x="7.16" y="5.03" width=".69" height="2.07"/>
      <g>
        <polygon class="cls-1" points="9.23 5.03 7.16 5.72 7.16 4.34 9.23 5.03 9.23 5.03"/>
        <polygon class="cls-8" points="7.16 4.34 7.16 5.72 9.23 5.03 7.16 4.34 7.16 4.34"/>
      </g>
    </g>
  </g>
</svg>