<?xml version="1.0" encoding="UTF-8"?>
<svg id="a" xmlns="http://www.w3.org/2000/svg" version="1.1" viewBox="0 0 43.5 46.6">

  <path id="Accent" fill="var(--icon-color-accent, #ff8700)" d="M12,36H4c-2.2,0-4-1.8-4-4V4C0,1.8,1.8,0,4,0h32C38.2,0,40,1.8,40,4v12c0,1.1-.9,2-2,2s-2-.9-2-2V4H4v28h8c1.1,0,2,.9,2,2s-.9,2-2,2Z"/>

  <path id="Grey" fill="currentColor" opacity=".4" d="M30,10H10c-1.1,0-2,.9-2,2s.9,2,2,2h20c1.1,0,2-.9,2-2s-.9-2-2-2Z M20,18h-10c-1.1,0-2,.9-2,2s.9,2,2,2h10c1.1,0,2-.9,2-2s-.9-2-2-2Z"/>

  <path id="Current_Color" fill="currentColor" d="M28,46.6c-.7,0-1.2-.5-1.3-1.1l-.4-3c-.3-.1-.6-.2-.8-.4s-.5-.3-.8-.5l-2.9,1.2c-.6.2-1.3,0-1.7-.5l-2.5-4.2c-.3-.6-.2-1.3.4-1.7l2.5-1.8c0-.2,0-.3,0-.4v-.9c0-.1,0-.3,0-.4l-2.5-1.8c-.5-.4-.7-1.1-.4-1.7l2.5-4.2c.3-.6,1-.8,1.7-.5l2.9,1.2c.2-.2.5-.3.8-.5s.5-.3.8-.4l.4-3c0-.6.6-1.1,1.3-1.1h5c.7,0,1.2.5,1.3,1.1l.4,3c.3.1.6.2.8.4s.5.3.8.5l2.9-1.2c.6-.2,1.3,0,1.7.5l2.5,4.2c.3.6.2,1.3-.3,1.7l-2.5,1.8c0,.2,0,.3,0,.4v.9c0,.1,0,.3,0,.4l2.5,1.8c.5.4.7,1.1.3,1.7l-2.5,4.2c-.3.6-1.1.8-1.7.5l-2.8-1.2c-.2.2-.5.3-.8.5s-.5.3-.8.4l-.4,3c0,.7-.7,1.1-1.3,1.1h-5,0ZM30.6,38.2c1.3,0,2.4-.4,3.3-1.3s1.4-2,1.4-3.2-.5-2.3-1.4-3.2-2-1.3-3.3-1.3-2.4.4-3.3,1.3-1.4,2-1.4,3.2.5,2.3,1.4,3.2c.9.9,2,1.3,3.3,1.3Z"/>
</svg>