<?xml version="1.0" encoding="UTF-8"?><svg id="a" xmlns="http://www.w3.org/2000/svg" viewBox="0 0 46.21 46.22">

<path id="Grey" fill="currentColor" opacity=".4" d="M32.69,6.43c.68.39,1.19.96,1.51,1.61,1.32-.4,2.7-.42,4-.11-.5-1.96-1.75-3.73-3.65-4.81-1.85-1.05-3.95-1.25-5.85-.73.92.97,1.59,2.19,1.91,3.54.71-.03,1.43.12,2.08.5Z M43.81,17.54c-.37,1.29-1.08,2.5-2.09,3.46.39.6.63,1.31.63,2.08s-.22,1.49-.61,2.1c1.03.96,1.76,2.16,2.14,3.46,1.43-1.39,2.33-3.32,2.34-5.47,0-2.22-.92-4.22-2.41-5.63Z M43.8,17.54s0,0,0,0c0,0,0,0,0-.01h-.01Z M23.12,46.2c-3.72,0-6.82-2.64-7.54-6.14,0,.07.02.14.04.21-.74.05-1.5-.12-2.18-.52-.65-.38-1.14-.93-1.46-1.55.04-.01.07-.03.1-.04-3.39,1.09-7.2-.31-9.03-3.53-.91-1.61-1.18-3.41-.9-5.1-.29,1.7-.03,3.5.88,5.11,1.08,1.91,2.86,3.17,4.83,3.66.47,1.96,1.71,3.74,3.59,4.84,1.93,1.13,4.14,1.32,6.12.72,1.4,1.45,3.36,2.36,5.54,2.36,1.29,0,2.5-.32,3.57-.89-1.06.55-2.27.87-3.55.87h-.01Z M2.34,28.62h.01s-.02.08-.03.12c.37-1.32,1.1-2.54,2.13-3.51-.4-.61-.64-1.33-.64-2.12s.24-1.53.65-2.14c.07.06.14.12.21.18-2.64-2.37-3.37-6.33-1.55-9.54.3-.53.66-1,1.05-1.43-.4.43-.76.91-1.07,1.44-1.06,1.87-1.25,4-.71,5.91C.91,18.94-.02,20.94,0,23.15c.01,2.15.91,4.08,2.34,5.47Z M11.96,8s0,0,0,0c0,0,0,.01-.01.02l.02-.02Z M11.95,8c.33-.63.82-1.18,1.49-1.57.69-.4,1.44-.56,2.18-.51,0,.04-.01.09-.02.13.3-1.41,1-2.67,1.96-3.68-1.95-.57-4.12-.39-6.03.71-1.9,1.1-3.15,2.89-3.63,4.87,1.31-.34,2.7-.33,4.05.05Z M32.61,37.46c-.88-.51-1.88-1.59-2.9-2.95,0,.02.02.04.02.06,1,1.34,1.99,2.4,2.86,2.91.52.3,1.06.53,1.61.7-.33.65-.83,1.21-1.51,1.6-.66.38-1.38.54-2.09.5-.33,1.36-1.01,2.59-1.95,3.56,1.94.55,4.09.36,5.97-.73,1.88-1.08,3.12-2.84,3.61-4.79.05-.01.09-.03.14-.04-1.89.47-3.95.24-5.76-.82Z"/>

<path id="Current_Color" fill="currentColor" d="M36.29,23.11c1.68-.2,3.12-.52,4-1.03,3.67-2.15,4.9-6.87,2.75-10.54-2.13-3.63-6.79-4.88-10.45-2.8-.88.51-1.88,1.59-2.9,2.95.67-1.56,1.11-2.97,1.11-3.99,0-4.25-3.45-7.7-7.7-7.7s-7.7,3.45-7.7,7.7c0,1.02.44,2.43,1.11,3.99-1.01-1.36-2.01-2.45-2.9-2.95-3.7-2.1-8.4-.81-10.5,2.89-2.08,3.66-.83,8.32,2.8,10.45.88.51,2.32.83,4,1.03-1.68.2-3.12.52-4,1.03-3.7,2.1-4.99,6.8-2.89,10.5s6.8,4.99,10.5,2.89c.03-.02.06-.03.09-.05.88-.51,1.88-1.59,2.9-2.95-.67,1.56-1.11,2.97-1.11,3.99,0,4.25,3.45,7.7,7.7,7.7s7.7-3.45,7.7-7.7c0-1.02-.44-2.43-1.11-3.99,1.01,1.36,2.01,2.45,2.9,2.95,3.67,2.15,8.39.92,10.54-2.75,2.15-3.67.92-8.39-2.75-10.54-.03-.02-.06-.03-.09-.05-.88-.51-2.32-.83-4-1.03M26.96,7.71c-.04.27-.1.53-.17.79-.15.51-.39,1.13-.7,1.86-.73,1.61-1.55,3.18-2.45,4.71,0,0-.28.4-.53.4s-.51-.4-.51-.4c-.9-1.53-1.72-3.1-2.45-4.71-.27-.61-.51-1.23-.7-1.86-.07-.26-.13-.52-.17-.79,0-2.13,1.72-3.85,3.85-3.85s3.85,1.72,3.85,3.85M6.43,13.49c1.06-1.84,3.42-2.47,5.26-1.41.21.17.41.35.6.55.36.39.78.9,1.26,1.54.94,1.28,1.93,2.88,2.86,4.48,0,0,.3.49.17.72s-.69.19-.69.19c-1.77.02-3.55-.06-5.31-.23-.66-.06-1.32-.17-1.96-.32-.26-.07-.52-.15-.77-.25-1.84-1.06-2.47-3.42-1.41-5.26M11.69,34.15c-1.85,1.05-4.2.4-5.25-1.44-1.04-1.83-.42-4.16,1.4-5.22l.18-.08c.14-.05.34-.11.59-.17.52-.12,1.17-.23,1.96-.32,1.76-.17,3.54-.25,5.31-.23.35,0,.53-.08.69.21.13.22-.17.69-.17.69-.92,1.6-1.91,3.2-2.86,4.48-.39.54-.81,1.05-1.26,1.54-.19.19-.39.38-.6.55M26.96,38.51c0,2.13-1.72,3.85-3.85,3.85s-3.85-1.72-3.85-3.85c.04-.27.1-.53.17-.79.15-.51.38-1.13.7-1.86.64-1.46,1.52-3.11,2.45-4.71l.52-.56.52.56c.93,1.6,1.81,3.25,2.45,4.71.32.73.55,1.35.7,1.86.08.26.14.52.17.79M39.78,13.49c1.06,1.84.43,4.2-1.41,5.26-.25.1-.51.18-.77.25-.52.12-1.17.23-1.96.32-1.59.17-3.46.23-5.31.23-.35,0-.64-.01-.75-.26-.1-.24.23-.64.23-.64.92-1.6,1.91-3.2,2.86-4.48.39-.54.81-1.05,1.26-1.54.18-.19.33-.33.44-.42l.16-.12c1.84-1.06,4.2-.43,5.26,1.41M34.52,34.15c-.21-.17-.41-.35-.6-.54-.45-.49-.87-1-1.26-1.54-1.03-1.44-1.98-2.94-2.86-4.49,0,0-.12-.38,0-.6s.51-.3.51-.3c1.85,0,3.72.06,5.31.23.79.09,1.45.2,1.96.32.25.06.45.12.59.17l.18.08c1.85,1.05,2.5,3.4,1.44,5.25-1.05,1.85-3.4,2.5-5.25,1.44,0,0-.03-.02-.04-.03h.02ZM23.11,26.96c-2.13,0-3.85-1.72-3.85-3.85s1.72-3.85,3.85-3.85,3.85,1.72,3.85,3.85-1.72,3.85-3.85,3.85"/>

<path id="Accent" fill="var(--icon-color-accent, #ff8700)" d="M23.12,18c-2.81,0-5.1,2.3-5.1,5.1s2.3,5.1,5.1,5.1,5.1-2.3,5.1-5.1v-.24c-.12-2.7-2.37-4.87-5.1-4.87h0ZM23.12,24.78c-.92,0-1.68-.75-1.68-1.68s.75-1.68,1.68-1.68c.69,0,1.29.42,1.54,1.02.09.2.13.42.13.65,0,.92-.75,1.68-1.68,1.68h0Z"/>

</svg>