<?xml version="1.0" encoding="utf-8"?>
<!-- Generator: Adobe Illustrator 28.0.0, SVG Export Plug-In . SVG Version: 6.00 Build 0)  -->
<svg version="1.1" id="Ebene_1" xmlns="http://www.w3.org/2000/svg" x="0px" y="0px" viewBox="0 0 64 64">
<path id="Accent" fill="var(--icon-color-accent, #ff8700)" d="M50.1,13.8H13.9c-1.1,0-1.9,0.9-1.9,1.9v32.1c0,1.1,0.9,1.9,1.9,1.9H50c0,0,0,0,0,0l0.5,0
	c0.8,0,1.4-0.6,1.4-1.4V15.8C52,14.7,51.1,13.8,50.1,13.8z M16,17.8h32v28H16V17.8z"/>
<g id="Grey" fill="currentColor" opacity=".4" >
	<path d="M42,37.8H22c-1.1,0-2,0.9-2,2s0.9,2,2,2h20c1.1,0,2-0.9,2-2S43.1,37.8,42,37.8z"/>
	<path d="M22,25.8h20c1.1,0,2-0.9,2-2s-0.9-2-2-2H22c-1.1,0-2,0.9-2,2S20.9,25.8,22,25.8z"/>
	<path d="M22,33.8h20c1.1,0,2-0.9,2-2s-0.9-2-2-2H22c-1.1,0-2,0.9-2,2S20.9,33.8,22,33.8z"/>
</g>
</svg>
