<?xml version="1.0" encoding="UTF-8"?>
<svg id="Ebene_2" data-name="Ebene 2" xmlns="http://www.w3.org/2000/svg" viewBox="0 0 14 14">
  <defs>
    <style>
      .cls-1 {
        fill: #ffe266;
      }

      .cls-2 {
        fill: #edb026;
      }

      .cls-3 {
        fill: #ffd400;
      }

      .cls-4 {
        fill: #989898;
      }
    </style>
  </defs>
  <g id="Ebene_1-2" data-name="Ebene 1">
    <path class="cls-4" d="m0,0v14h14V0H0Zm1,1h12v12H1V1Z"/>
    <g>
      <g>
        <path class="cls-3" d="m8.17,11.5v-1c0-.69-.52-1.25-1.17-1.25s-1.17.56-1.17,1.25v1h-2.33v-5h7v5h-2.33Z"/>
        <path class="cls-2" d="m10,7v4h-1.33v-.5c0-.96-.75-1.75-1.67-1.75s-1.67.79-1.67,1.75v.5h-1.33v-4h6m1-1H3v6h3.33v-1.5c0-.41.3-.75.67-.75s.67.34.67.75v1.5h3.33v-6h0Z"/>
      </g>
      <g>
        <polygon class="cls-1" points="2.5 6.5 2.5 3.5 2.93 3.5 2.93 4.5 4.64 4.5 4.64 3.5 5.07 3.5 5.07 4.5 6.79 4.5 6.79 3.5 7.21 3.5 7.21 4.5 8.93 4.5 8.93 3.5 9.36 3.5 9.36 4.5 11.07 4.5 11.07 3.5 11.5 3.5 11.5 6.5 2.5 6.5"/>
        <path class="cls-2" d="m11,5v1H3v-1h8m.86-2h-1.29v1h-.71v-1h-1.43v1h-.71v-1h-1.43v1h-.71v-1h-1.43v1h-.71v-1h-1.29c-.08,0-.14.09-.14.2v3.6c0,.11.06.2.14.2h9.71c.08,0,.14-.09.14-.2v-3.6c0-.11-.06-.2-.14-.2h0Z"/>
      </g>
    </g>
  </g>
</svg>