<?xml version="1.0" encoding="UTF-8"?><svg id="b" xmlns="http://www.w3.org/2000/svg" viewBox="0 0 14 14"><g id="c"><path d="m0,0v14h14V0H0Zm1,1h12v12H1V1Z" fill="#989898"/><path d="m7.42,4.91h3.33v6.13h-2.64v-1.31c0-.72-.5-1.31-1.11-1.31s-1.11.59-1.11,1.31v1.31h-2.64v-6.13h3.33" fill="#ffd400"/><path d="m11.86,2.5h-1.29v.9h-.71v-.9h-1.43v.9h-.71v-.9h-1.43v.9h-.71v-.9h-1.43v.9h-.71v-.9h-1.29c-.08,0-.14.08-.14.18v3.24c0,.1.06.18.14.18h.69v5.4h3.47v-1.8c0-.5.31-.9.69-.9s.69.4.69.9v1.8h3.47v-5.4h.69c.08,0,.14-.08.14-.18v-3.24c0-.1-.06-.18-.14-.18Zm-1.52,8.1h-1.81v-.9c0-.99-.69-1.8-1.53-1.8s-1.53.81-1.53,1.8v.9h-1.81v-4.5h6.67v4.5Z" fill="#edb026"/><path d="m11.17,5.2H2.83v-.9h8.33v.9Z" fill="#ffe266"/></g></svg>