<?xml version="1.0" encoding="UTF-8"?><svg id="b" xmlns="http://www.w3.org/2000/svg" viewBox="0 0 15 15"><g id="c"><g><path d="m6.88,14l-.62-2.19-.24-.09c-.15-.05-.3-.11-.44-.18l-.23-.11-1.99,1.1-.88-.88,1.1-1.99-.11-.23c-.07-.14-.13-.29-.18-.45l-.09-.24-2.19-.62v-1.25l2.19-.62.08-.25c.05-.15.11-.3.18-.44l.11-.23-1.1-1.98.88-.88,1.99,1.1.23-.11c.14-.07.29-.13.45-.18l.24-.09.63-2.19h1.25l.63,2.19.25.08c.15.05.3.11.44.18l.23.11,1.98-1.1.88.88-1.1,1.99.11.23c.07.15.13.29.18.44l.09.25,2.19.62v1.25l-2.19.62-.09.24c-.05.15-.11.3-.18.44l-.11.23,1.1,1.99-.88.88-1.99-1.1-.23.11c-.14.07-.29.13-.44.18l-.24.09-.62,2.19h-1.25Zm.62-8.5c-1.1,0-2,.9-2,2s.9,2,2,2,2-.9,2-2-.9-2-2-2Z" fill="#ffd400"/><path d="m7.75,1.5l.45,1.58.14.5.49.17c.13.05.27.1.39.16l.46.22.45-.25,1.43-.8.35.35-.8,1.43-.25.45.22.46c.06.13.11.26.16.39l.17.49.5.14,1.58.45v.49l-1.58.45-.5.14-.17.49c-.05.13-.1.27-.16.39l-.22.47.25.45.8,1.43-.35.35-1.43-.8-.45-.25-.47.22c-.13.06-.26.11-.39.16l-.49.17-.14.5-.45,1.58h-.49l-.45-1.58-.14-.5-.49-.17c-.13-.05-.27-.1-.39-.16l-.47-.22-.45.25-1.43.79-.35-.35.8-1.43.25-.45-.22-.47c-.06-.13-.11-.26-.16-.39l-.17-.49-.5-.14-1.58-.45v-.49l1.58-.45.5-.14.17-.49c.05-.13.1-.27.16-.39l.22-.46-.25-.45-.8-1.43.35-.35,1.43.79.45.25.47-.22c.13-.06.26-.11.39-.16l.49-.17.14-.5.45-1.58h.49m-.25,8.5c1.38,0,2.5-1.12,2.5-2.5s-1.12-2.5-2.5-2.5-2.5,1.12-2.5,2.5,1.12,2.5,2.5,2.5M8.31.5h-1.62c-.11,0-.21.07-.24.18l-.61,2.12c-.17.06-.33.12-.49.2l-1.93-1.07s-.08-.03-.12-.03c-.06,0-.13.03-.18.07l-1.15,1.15c-.08.08-.1.2-.04.3l1.07,1.93c-.08.16-.14.33-.2.49l-2.12.61c-.11.03-.18.13-.18.24v1.62c0,.11.07.21.18.24l2.12.61c.06.17.12.33.2.49l-1.07,1.93c-.05.1-.04.22.04.3l1.15,1.15s.11.07.18.07c.04,0,.08-.01.12-.03l1.93-1.07c.16.08.33.14.49.2l.61,2.12c.03.11.13.18.24.18h1.62c.11,0,.21-.07.24-.18l.61-2.12c.17-.06.33-.12.49-.2l1.93,1.07s.08.03.12.03c.06,0,.13-.03.18-.07l1.15-1.15c.08-.08.1-.2.04-.3l-1.07-1.93c.08-.16.14-.33.2-.49l2.12-.61c.11-.03.18-.13.18-.24v-1.62c0-.11-.07-.21-.18-.24l-2.12-.61c-.06-.17-.13-.33-.2-.49l1.07-1.93c.05-.1.04-.22-.04-.3l-1.15-1.15s-.11-.07-.18-.07c-.04,0-.08.01-.12.03l-1.93,1.07c-.16-.08-.33-.14-.49-.2l-.61-2.12c-.03-.11-.13-.18-.24-.18h0Zm-.81,8.5c-.83,0-1.5-.67-1.5-1.5s.67-1.5,1.5-1.5,1.5.67,1.5,1.5-.67,1.5-1.5,1.5h0Z" fill="#edb026"/></g><path d="m7.6,14.5v-6.9h6.9v6.9h-6.9Z" fill="#989898"/><path d="m8.22,8.22h5.65v5.65h-5.65v-5.65m-.63-.63v6.9h6.9v-6.9h-6.9Z" fill="#212121" isolation="isolate" opacity=".2"/><path d="m12.62,10.73l-1.57,2.51-1.57-2.51h1.26v-1.88h.63v1.88h1.26Z" fill="#fff"/></g></svg>