<svg id="Ebene_1" data-name="Ebene 1" xmlns="http://www.w3.org/2000/svg" viewBox="0 0 16 16"><path d="M0,0H16V16H0Z" fill="#fff"/><path d="M.74957,1.65587H15.25043V3.46848H.74957Zm0,3.62522H15.25043V7.0937H.74957Zm0,3.62521H15.25043v1.81261H.74957Zm0,3.62522H15.25043v1.81261H.74957Z" fill="#b9b9b9"/><rect x="4.97578" y="8.1308" width="11.02422" height="6.86717" fill="#79a547"/><rect x="6.38216" y="9.6921" width="0.46275" height="3.74458" fill="#fff"/><rect x="6.38216" y="13.03487" width="2.02734" height="0.4154" fill="#fff"/><rect x="9.15514" y="9.85626" width="2.17081" height="3.38907" fill="none" stroke="#fff" stroke-miterlimit="10" stroke-width="0.4"/><rect x="12.0716" y="9.67851" width="0.4811" height="3.74458" fill="#fff"/><rect x="12.0716" y="13.03487" width="2.57226" height="0.4154" fill="#fff"/><rect x="12.07159" y="9.67463" width="2.33172" height="0.4154" fill="#fff"/><rect x="14.16277" y="11.90689" width="0.4811" height="1.50282" fill="#fff"/><rect x="13.78729" y="11.88857" width="0.85657" height="0.4811" fill="#fff"/></svg>