<?xml version="1.0" encoding="UTF-8"?><svg id="b" xmlns="http://www.w3.org/2000/svg" viewBox="0 0 14 14.03"><g id="c"><path d="m12.5,4.5v9H1.5V.5h9v4h2Z" fill="#eee"/><path d="m11,7.05h-1v-1h1v1Zm0,.96h-1v1h1v-1Zm-2-6.07H3v1h6v-1Zm0,2.02H3v1h6v-1Zm0,2.02H3v1h6v-1Zm0,2.02H3v1h6v-1Z" fill="#ffd400"/><path d="m12.8,4h-1.8V.2c0-.11-.09-.2-.2-.2H1.2c-.11,0-.2.09-.2.2v13.8h12V4.2c0-.11-.09-.2-.2-.2Zm-6.8,9v-1.98h-2v1.98H2V1h8v3h-1.8c-.11,0-.2.09-.2.2v8.8h-2Zm6,0h-1v-1.98h-1v1.98h-1V5h3v8Z" fill="#8b8b8b"/><path d="m14,14.03H0v-1h14v1Z" fill="#4d4d4d"/></g></svg>