<?xml version="1.0" encoding="UTF-8"?><svg id="b" xmlns="http://www.w3.org/2000/svg" viewBox="0 0 14 14"><g id="c"><path d="m13,14H1V.2c0-.1.1-.2.2-.2h11.5c.2,0,.3.1.3.2v13.8Z" fill="#eee"/><path d="m12.8,0H1.2c-.1,0-.2.1-.2.2v13.8h12V.2c0-.1-.1-.2-.2-.2Zm-.8,13h-4v-2h-2v2H2V1h10v12Z" fill="#8b8b8b"/><path d="m0,13h14v1H0v-1Z" fill="#515151"/><path d="m8.86,6.21c-.33.28-.81.43-1.42.43h-1.18v2.09h-1.18V2.91h2.43c.56,0,1.01.15,1.34.45.33.3.5.76.5,1.39,0,.69-.17,1.17-.5,1.46Zm-.9-2.1c-.15-.13-.36-.19-.63-.19h-1.07v1.71h1.07c.27,0,.48-.07.63-.21.15-.14.22-.36.22-.66s-.08-.52-.22-.65Z" fill="#ffd400" stroke="#edb026" stroke-miterlimit="10" stroke-width=".28"/></g></svg>