<?xml version="1.0" encoding="UTF-8"?><svg id="b" xmlns="http://www.w3.org/2000/svg" viewBox="0 0 14 14"><g id="c"><path d="m.5,13.5v-5h13v5H.5Z" fill="#ffd400"/><path d="m12.52,1.5v7H1.5V.5h4v3h4.02V1.5h3Z" fill="#eee"/><path d="m3.25,9.93h.66v2.15h-.66v-2.15Zm1.15,0h.62l.81,1.19v-1.19h.62v2.15h-.62l-.8-1.18v1.18h-.62v-2.15Zm2.5,0h1.64v.46h-.97v.38h.83v.43h-.83v.88h-.67v-2.15Zm1.92,1.08c0-.35.1-.62.29-.82.19-.2.47-.29.81-.29s.63.1.83.29c.19.19.29.46.29.81,0,.25-.04.46-.13.62-.08.16-.21.29-.37.38-.16.09-.36.13-.6.13s-.44-.04-.6-.12-.29-.2-.39-.37c-.1-.17-.15-.38-.15-.63Zm.66,0c0,.22.04.37.12.47s.19.14.33.14.25-.05.33-.14c.08-.09.12-.26.12-.5,0-.2-.04-.35-.12-.44-.08-.09-.19-.14-.33-.14s-.24.05-.32.14c-.08.09-.12.25-.12.47Z" fill="#4d4d4d"/><path d="m12.82,1h-3.6c-.11,0-.2.09-.2.2v1.8h-3.02V.19c0-.1-.08-.19-.19-.19H1.19c-.1,0-.19.08-.19.19v8.62c0,.1.08.19.19.19h11.63c.11,0,.2-.09.2-.2V1.2c0-.11-.09-.2-.2-.2Zm-7.82,7h-1v-2h-1v2h-1V1h3v7Zm4,0h-1v-1h-1v1h-1v-4h3v4Zm3.02,0h-.5v-2h-1v2h-.5V2h2v6Z" fill="#8b8b8b"/><path d="m3,4.01h1v1h-1v-1Zm0-1h1v-1h-1v1Zm3.96,3h1v-1h-1v1Zm3.57-3v1h1v-1h-1Z" fill="#313131"/><path d="m13,9v4H1v-4h12m.8-1H.2c-.11,0-.2.09-.2.2v5.59c0,.11.09.2.2.2h13.59c.11,0,.2-.09.2-.2v-5.59c0-.11-.09-.2-.2-.2h0Z" fill="#edb026"/></g></svg>