<?xml version="1.0" encoding="UTF-8"?>
<svg id="Ebene_2" data-name="Ebene 2" xmlns="http://www.w3.org/2000/svg" viewBox="0 0 14 14">
  <defs>
    <style>
      .cls-1 {
        fill: #eee;
      }

      .cls-2 {
        fill: #989898;
      }

      .cls-3 {
        fill: #8b8b8b;
      }

      .cls-4 {
        fill: #515151;
      }

      .cls-5 {
        fill: #ffd400;
        font-family: Helvetica-Bold, Helvetica;
        font-size: 8.09px;
        font-weight: 700;
        letter-spacing: -.02em;
        stroke: #edb026;
        stroke-miterlimit: 10;
        stroke-width: .28px;
      }
    </style>
  </defs>
  <g id="Ebene_1-2" data-name="Ebene 1">
    <g>
      <path class="cls-1" d="m13,14H1V.2c0-.1.1-.2.2-.2h11.5c.2,0,.3.1.3.2v13.8Z"/>
      <path class="cls-2" d="m12,1v12H2V1h10m.8-1H1.2c-.1,0-.2.1-.2.2v13.8h12V.2c0-.1-.1-.2-.2-.2Z"/>
      <path class="cls-4" d="m0,13h14v1H0v-1Z"/>
      <path class="cls-3" d="m6,11h2v2h-2v-2Z"/>
    </g>
    <text class="cls-5" transform="translate(4.45 8.73) scale(.97 1)"><tspan x="0" y="0">P</tspan></text>
  </g>
</svg>