<?xml version="1.0" encoding="UTF-8"?>
<svg id="Ebene_2" data-name="Ebene 2" xmlns="http://www.w3.org/2000/svg" viewBox="0 0 14 13">
  <defs>
    <style>
      .cls-1 {
        fill: #ffe266;
      }

      .cls-2 {
        fill: #edb026;
      }

      .cls-3 {
        fill: #ffd400;
      }
    </style>
  </defs>
  <g id="Ebene_1-2" data-name="Ebene 1">
    <g>
      <g>
        <path class="cls-3" d="m9.5,12.5v-2.5c0-1.38-1.12-2.5-2.5-2.5s-2.5,1.12-2.5,2.5v2.5H1.5V3.5h11v9h-3Z"/>
        <path class="cls-2" d="m12,4v8h-2v-2c0-1.65-1.35-3-3-3s-3,1.35-3,3v2h-2V4h10m1-1H1v10h4v-3c0-1.1.9-2,2-2s2,.9,2,2v3h4V3h0Z"/>
      </g>
      <g>
        <polygon class="cls-1" points=".5 4.5 .5 .5 1.5 .5 1.5 1.75 3.5 1.75 3.5 .5 4.5 .5 4.5 1.75 6.5 1.75 6.5 .5 7.5 .5 7.5 1.75 9.5 1.75 9.5 .5 10.5 .5 10.5 1.75 12.5 1.75 12.5 .5 13.5 .5 13.5 4.5 .5 4.5"/>
        <path class="cls-2" d="m13,1v3H1v-1.75h12v-1.25m.8-1h-1.8v1.25h-1V0h-2v1.25h-1V0h-2v1.25h-1V0h-2v1.25h-1V0H.2c-.11,0-.2.11-.2.25v4.5c0,.14.09.25.2.25h13.6c.11,0,.2-.11.2-.25V.25c0-.14-.09-.25-.2-.25h0Z"/>
      </g>
    </g>
  </g>
</svg>