<?xml version="1.0" encoding="UTF-8"?><svg id="b" xmlns="http://www.w3.org/2000/svg" viewBox="0 0 14 13"><g id="c"><path d="m9.5,12.5v-2.5c0-1.38-1.12-2.5-2.5-2.5s-2.5,1.12-2.5,2.5v2.5H1.5V3.5h11v9h-3Z" fill="#ffd400"/><path d="m13.8,0h-1.8v1.25h-1V0h-2v1.25h-1V0h-2v1.25h-1V0h-2v1.25h-1V0H.2c-.11,0-.2.11-.2.25v4.5c0,.14.09.25.2.25h.8v8h4v-3c0-1.1.9-2,2-2s2,.9,2,2v3h4V5h.8c.11,0,.2-.11.2-.25V.25c0-.14-.09-.25-.2-.25Zm-1.8,12h-2v-2c0-1.65-1.35-3-3-3s-3,1.35-3,3v2h-2v-7h10v7Zm1-9H1v-.75h12v.75Z" fill="#edb026"/><path d="m13,4H1v-2h12v2Z" fill="#ffe266"/></g></svg>