<svg id="Ebene_1" data-name="Ebene 1" xmlns="http://www.w3.org/2000/svg" viewBox="0 0 16 16"><path d="M0,0H16V16H0Z" fill="#fff"/><path d="M.74957,5.28109H15.25043V7.0937H.74957Zm0,3.62521H15.25043v1.81261H.74957Zm0,3.62522H15.25043v1.81261H.74957Z" fill="#b9b9b9"/><rect x="0.74957" y="1.63189" width="14.50087" height="1.81261" fill="#b9b9b9"/><rect x="4.94931" y="8.21784" width="11.02422" height="6.86717" fill="#79a547"/><rect x="6.35569" y="9.77913" width="0.46275" height="3.74458" fill="#fff"/><rect x="6.35569" y="13.12191" width="2.02734" height="0.4154" fill="#fff"/><rect x="9.12867" y="9.9433" width="2.17081" height="3.38907" fill="none" stroke="#fff" stroke-miterlimit="10" stroke-width="0.4"/><rect x="12.04513" y="9.76554" width="0.4811" height="3.74458" fill="#fff"/><rect x="12.04513" y="13.12191" width="2.57226" height="0.4154" fill="#fff"/><rect x="12.04512" y="9.76167" width="2.33172" height="0.4154" fill="#fff"/><rect x="14.1363" y="11.99393" width="0.4811" height="1.50282" fill="#fff"/><rect x="13.76082" y="11.97561" width="0.85657" height="0.4811" fill="#fff"/></svg>