<?xml version="1.0" encoding="UTF-8"?>
<svg id="Ebene_2" data-name="Ebene 2" xmlns="http://www.w3.org/2000/svg" viewBox="0 0 14 14.01">
  <defs>
    <style>
      .cls-1 {
        fill: #4d4d4d;
        font-family: Arial-Black, 'Arial Black';
        font-size: 3px;
        font-weight: 800;
      }

      .cls-2 {
        letter-spacing: -.02em;
      }

      .cls-3 {
        fill: #fff;
      }

      .cls-4 {
        fill: #edb026;
      }

      .cls-5 {
        fill: #ffd400;
      }

      .cls-6 {
        fill: #989898;
      }

      .cls-7 {
        fill: #b8b8b8;
      }

      .cls-8 {
        fill: #666;
      }
    </style>
  </defs>
  <g id="Ebene_1-2" data-name="Ebene 1">
    <g>
      <path class="cls-3" d="m0,0h14v14H0V0Z"/>
      <path class="cls-6" d="m0,0v14h14V0H0Zm1,1h12v12H1V1Z"/>
      <path class="cls-8" d="m2,2h10v2H2v-2Z"/>
      <path class="cls-7" d="m2,5h10v1H2v-1Zm0,2h10v1H2v-1Zm0,2h3.53v1h-3.53v-1Zm0,2h3.53v1h-3.53v-1Z"/>
      <g>
        <g>
          <rect class="cls-5" x="4.64" y="8.25" width="9.11" height="5.51"/>
          <path class="cls-4" d="m13.5,8.5v5.01H4.89v-5.01h8.61m.5-.5H4.39v6.01h9.61v-6.01h0Z"/>
        </g>
        <text class="cls-1" transform="translate(5.78 12.19)"><tspan class="cls-2" x="0" y="0">L</tspan><tspan x="1.95" y="0">OG</tspan></text>
      </g>
    </g>
  </g>
</svg>