<?xml version="1.0" encoding="UTF-8"?>
<svg id="Ebene_2" data-name="Ebene 2" xmlns="http://www.w3.org/2000/svg" viewBox="0 0 14 14.03">
  <defs>
    <style>
      .cls-1, .cls-2 {
        fill: #eee;
      }

      .cls-3, .cls-4 {
        fill: #989898;
      }

      .cls-5 {
        fill: #8b8b8b;
      }

      .cls-4 {
        stroke: #4d4d4d;
        stroke-width: 1px;
      }

      .cls-4, .cls-2 {
        stroke-miterlimit: 10;
      }

      .cls-2 {
        stroke: #ffd400;
      }
    </style>
  </defs>
  <g id="Ebene_1-2" data-name="Ebene 1">
    <g>
      <g>
        <g>
          <rect class="cls-1" x="1.5" y=".5" width="9" height="13"/>
          <path class="cls-3" d="m10,1v12H2V1h8m.8-1H1.2c-.11,0-.2.09-.2.2v13.8h10V.2c0-.11-.09-.2-.2-.2h0Z"/>
        </g>
        <line class="cls-2" x1="3" y1="2.43" x2="9" y2="2.43"/>
        <line class="cls-2" x1="3" y1="4.46" x2="9" y2="4.46"/>
        <line class="cls-2" x1="3" y1="6.48" x2="9" y2="6.48"/>
        <line class="cls-2" x1="3" y1="8.5" x2="9" y2="8.5"/>
        <path class="cls-5" d="m4,11.02h2v2h-2v-2Z"/>
      </g>
      <g>
        <g>
          <rect class="cls-1" x="8.5" y="4.5" width="4" height="9"/>
          <path class="cls-3" d="m12,5v8h-3V5h3m.8-1h-4.6c-.11,0-.2.09-.2.2v9.8h5V4.2c0-.11-.09-.2-.2-.2h0Z"/>
        </g>
        <line class="cls-2" x1="10" y1="6.55" x2="11" y2="6.55"/>
        <line class="cls-2" x1="10" y1="8.5" x2="11" y2="8.5"/>
        <path class="cls-5" d="m10,11.02h1v2h-1v-2Z"/>
      </g>
      <line class="cls-4" y1="13.53" x2="14" y2="13.53"/>
    </g>
  </g>
</svg>