<?xml version="1.0" encoding="UTF-8"?><svg id="b" xmlns="http://www.w3.org/2000/svg" viewBox="0 0 14.97 10.2"><g id="c"><g><path d="m3.78,7.71v-.26c.05-1.45.71-1.86.79-1.9.6-.18,1.02-.37,1.43-.55l.26-.11c.06-.17.12-.41.14-.81-.37-.4-.61-.93-.61-1.36v-.96c0-.82.71-1.51,1.55-1.51h.35c.87,0,1.55.66,1.55,1.51v.96c0,.41-.22.92-.57,1.32.03.45.1.7.16.86l.09.04c.41.19.88.41,1.49.59.12.05.79.43.83,1.93v.26s-7.46,0-7.46,0Z" fill="#ffc946"/><path d="m7.69.5c.74,0,1.3.57,1.3,1.26v.96c0,.39-.24.87-.57,1.23.03.67.15.96.21,1.13.47.22.99.47,1.72.69,0,0,.61.3.65,1.7h-6.96c.04-1.35.65-1.7.65-1.7.73-.22,1.25-.47,1.77-.69.06-.17.18-.46.19-1.09-.36-.35-.61-.86-.61-1.26v-.96c0-.7.61-1.26,1.3-1.26h.35m0-.5h-.35c-.98,0-1.8.81-1.8,1.76v.96c0,.46.23,1.01.6,1.45-.02.24-.05.41-.09.53-.05.02-.1.05-.16.07-.4.17-.82.36-1.35.51l-.06.02-.05.03c-.09.05-.85.53-.9,2.11l-.02.52h7.99l-.02-.52c-.05-1.61-.78-2.05-.93-2.13l-.04-.02h-.04c-.59-.19-1.03-.39-1.45-.58-.04-.13-.08-.32-.1-.6.35-.43.56-.95.56-1.4v-.96c0-.99-.79-1.76-1.8-1.76h0Z" fill="#fff"/></g><path d="m11.09,8.15H3.86c.05-1.77.68-2.22.68-2.22.77-.29,1.31-.63,1.85-.91-.05.11-.05.23,0,.29.5.68,1.62.74,2.17,0,.09-.06.09-.17.05-.29.5.29,1.04.63,1.81.91,0,0,.63.4.68,2.22Z" fill="#8b8b8b"/><path d="m4.48,7.46h-.43c.04-1.35.65-1.7.65-1.7.74-.22,1.26-.48,1.78-.7-.04.09-.04.17,0,.22.22.26.65.39,1.04.39s.78-.13,1.04-.39c.09-.04.09-.13.04-.22.48.22,1,.48,1.74.7,0,0,.61.3.65,1.7h-.43l-.04-.43c-.09-.57-.26-.83-.35-.87-.48-.17-.87-.3-1.22-.48-.04,0-.09-.04-.13-.04-.3.3-.78.48-1.3.48s-1-.17-1.3-.48c-.04,0-.09.04-.13.04-.35.17-.74.35-1.22.48-.09.09-.3.3-.39.87v.43Z" fill="#212121" isolation="isolate" opacity=".15"/><g><path d="m.26,9.95v-.26c.05-1.45.71-1.86.79-1.9.6-.18,1.03-.37,1.44-.55l.25-.11c.06-.18.12-.41.14-.81-.37-.4-.61-.93-.61-1.36v-.96c0-.82.71-1.51,1.55-1.51h.35c.87,0,1.55.66,1.55,1.51v.96c0,.41-.22.92-.57,1.32.03.45.1.7.15.86l.08.04c.41.19.88.41,1.5.59.12.05.79.43.83,1.93v.26s-7.46,0-7.46,0Z" fill="#ffc946"/><path d="m4.17,2.74c.74,0,1.3.57,1.3,1.26v.96c0,.39-.24.87-.57,1.23.03.67.15.96.21,1.13.47.22.99.47,1.72.69,0,0,.61.3.65,1.7H.52c.04-1.35.65-1.7.65-1.7.73-.22,1.25-.47,1.77-.69.06-.17.18-.46.19-1.09-.36-.35-.61-.86-.61-1.26v-.96c0-.7.61-1.26,1.3-1.26h.35m0-.5h-.35c-.98,0-1.8.81-1.8,1.76v.96c0,.46.23,1.01.6,1.45-.02.24-.05.41-.09.53-.05.02-.1.05-.16.07-.4.17-.82.36-1.35.51l-.06.02-.05.03c-.09.05-.85.53-.9,2.11l-.02.52h7.99l-.02-.52c-.05-1.61-.78-2.05-.93-2.13l-.04-.02h-.04c-.59-.19-1.03-.39-1.45-.58-.04-.13-.08-.32-.1-.6.35-.43.56-.95.56-1.4v-.96c0-.99-.79-1.76-1.8-1.76h0Z" fill="#fff"/></g><g><path d="m7.24,9.95v-.26c.05-1.45.71-1.86.79-1.9.6-.18,1.03-.37,1.44-.55l.25-.11c.06-.17.12-.41.14-.81-.37-.4-.61-.93-.61-1.36v-.96c0-.82.71-1.51,1.55-1.51h.35c.87,0,1.55.66,1.55,1.51v.96c0,.41-.22.92-.57,1.32.03.45.1.7.15.86l.08.04c.41.19.88.41,1.5.59.12.05.78.43.83,1.93v.26s-7.46,0-7.46,0Z" fill="#ffc946"/><path d="m11.15,2.74c.74,0,1.3.57,1.3,1.26v.96c0,.39-.24.87-.57,1.23.03.67.15.96.21,1.13.47.22.99.47,1.72.69,0,0,.61.3.65,1.7h-6.96c.04-1.35.65-1.7.65-1.7.73-.22,1.25-.47,1.77-.69.06-.17.18-.46.19-1.09-.36-.35-.61-.86-.61-1.26v-.96c0-.7.61-1.26,1.3-1.26h.35m0-.5h-.35c-.98,0-1.8.81-1.8,1.76v.96c0,.46.23,1.01.6,1.45-.02.24-.05.41-.09.53-.05.02-.1.05-.16.07-.4.17-.82.36-1.35.51l-.06.02-.05.03c-.09.05-.85.53-.9,2.11l-.02.52h7.99l-.02-.52c-.05-1.61-.78-2.05-.93-2.13l-.04-.02h-.04c-.59-.19-1.03-.39-1.45-.58-.04-.13-.08-.32-.1-.6.35-.43.56-.95.56-1.4v-.96c0-.99-.79-1.76-1.8-1.76h0Z" fill="#fff"/></g><path d="m8.34,3.93c.04,1.16.35,1.26.17,1.45-.52.63-1.61.58-2.09,0-.17-.19.17-.29.17-1.45.26.29.57.48.87.48s.61-.19.87-.48Zm.61-1.21v-.96c0-.7-.57-1.26-1.3-1.26h-.35c-.7,0-1.3.57-1.3,1.26v.96c0,.7.74,1.7,1.48,1.7s1.48-1,1.48-1.7Zm-4.96,3.94c-.3,0-.61-.17-.87-.43,0,1.04-.35,1.13-.17,1.3.48.52,1.57.57,2.09,0,.17-.17-.13-.26-.17-1.3-.26.26-.57.43-.87.43Zm1.48-1.7v-.96c0-.7-.57-1.26-1.3-1.26h-.35c-.7,0-1.3.57-1.3,1.26v.96c0,.7.74,1.7,1.48,1.7s1.48-1,1.48-1.7Zm5.46,1.7c-.3,0-.61-.17-.87-.43,0,1.04-.35,1.13-.17,1.3.48.52,1.57.57,2.09,0,.17-.17-.13-.26-.17-1.3-.26.26-.57.43-.87.43Zm1.48-1.7v-.96c0-.7-.57-1.26-1.3-1.26h-.35c-.7,0-1.3.57-1.3,1.26v.96c0,.7.74,1.7,1.48,1.7s1.48-1,1.48-1.7Z" fill="#ffd400"/><path d="m6.27,5.15s.09-.05.13-.05c-.04.09-.04.19,0,.24s.13.14.22.19l.13-.05.09-.19v-.05c.04-.14.13-.47.17-.94-.17-.14-.3-.24-.43-.38,0,.71-.13.99-.17,1.18-.04,0-.09.05-.13.05Zm1.9.09l.04.24.13.05c.09-.05.13-.09.22-.19.04-.05.04-.14.04-.24-.04-.19-.17-.47-.17-1.18-.13.14-.26.24-.43.33.04.47.13.75.17.94v.05Z" fill="#f2a124"/><path d="m7.65.93c.48,0,.87.35.87.83v.96c0,.48-.57,1.26-1.04,1.26s-1.04-.78-1.04-1.26v-.96c0-.43.39-.83.87-.83h.35m0-.43h-.35c-.7,0-1.3.57-1.3,1.26v.96c0,.7.74,1.7,1.48,1.7s1.48-1,1.48-1.7v-.96c0-.7-.57-1.26-1.3-1.26Z" fill="#f2a124"/><path d="m2.82,7.35s.09-.04.13-.04c-.04.09-.04.17,0,.22s.13.13.22.17l.13-.04.09-.17v-.04c.04-.13.13-.43.17-.87-.17-.13-.3-.22-.43-.35,0,.65-.13.91-.17,1.09-.04,0-.09.04-.13.04Zm1.83.09l.04.22.13.04c.09-.04.13-.09.22-.17.04-.04.04-.13.04-.22-.04-.17-.17-.43-.17-1.09-.13.13-.26.22-.43.3.04.43.13.7.17.87,0,0,0,.04,0,.04Z" fill="#f2a124"/><path d="m4.17,3.18c.48,0,.87.35.87.83v.96c0,.48-.57,1.26-1.04,1.26s-1.04-.78-1.04-1.26v-.96c0-.43.39-.83.87-.83h.35m0-.43h-.35c-.7,0-1.3.57-1.3,1.26v.96c0,.7.74,1.7,1.48,1.7s1.48-1,1.48-1.7v-.96c0-.7-.57-1.26-1.3-1.26Z" fill="#f2a124"/><path d="m7.47,9.7H.52c.04-1.35.65-1.7.65-1.7.74-.22,1.26-.48,1.78-.7-.04.09-.04.17,0,.22.48.52,1.57.57,2.09,0,.09-.04.09-.13.04-.22.48.22,1,.48,1.74.7,0,0,.61.3.65,1.7Zm6.28-1.7c-.74-.22-1.26-.48-1.74-.7.04.09.04.17-.04.22-.52.57-1.61.52-2.09,0-.04-.04-.04-.13,0-.22-.52.22-1.04.48-1.78.7,0,0-.61.35-.65,1.7h6.96c-.04-1.39-.65-1.7-.65-1.7Z" fill="#8b8b8b"/><path d="m.99,9.7h-.43c.04-1.35.65-1.7.65-1.7.74-.22,1.26-.48,1.78-.7-.04.09-.04.17,0,.22.22.26.65.39,1.04.39s.78-.13,1.04-.39c.09-.04.09-.13.04-.22.48.22,1,.48,1.74.7,0,0,.61.3.65,1.7h-.43l-.04-.43c-.09-.57-.26-.83-.35-.87-.48-.17-.87-.3-1.22-.48-.04,0-.09-.04-.13-.04-.3.3-.78.48-1.3.48s-1-.17-1.3-.48c-.04,0-.09.04-.13.04-.35.17-.74.35-1.22.48-.09.09-.3.3-.39.87,0,0,0,.43,0,.43Zm6.94,0h-.43c.04-1.35.65-1.7.65-1.7.74-.22,1.26-.48,1.78-.7-.04.09-.04.17,0,.22.22.26.65.39,1.04.39s.78-.13,1.04-.39c.09-.04.09-.13.04-.22.48.22,1,.48,1.74.7,0,0,.61.3.65,1.7h-.43l-.04-.43c-.09-.57-.26-.83-.35-.87-.48-.17-.87-.3-1.22-.48-.04,0-.09-.04-.13-.04-.3.3-.78.48-1.3.48s-1-.17-1.3-.48c-.04,0-.09.04-.13.04-.35.17-.74.35-1.22.48-.09.09-.3.3-.39.87v.43Z" fill="#212121" isolation="isolate" opacity=".15"/><path d="m9.76,7.35s.09-.04.13-.04c-.04.09-.04.17,0,.22s.13.13.22.17l.13-.04.09-.17v-.04c.04-.13.13-.43.17-.87-.17-.13-.3-.22-.43-.35,0,.65-.13.91-.17,1.09-.04,0-.09.04-.13.04Zm1.83.09l.04.22.13.04c.09-.04.13-.09.22-.17.04-.04.04-.13.04-.22-.04-.17-.17-.43-.17-1.09-.13.13-.26.22-.43.3.04.43.13.7.17.87v.04Z" fill="#f2a124"/><path d="m11.11,3.18c.48,0,.87.35.87.83v.96c0,.48-.57,1.26-1.04,1.26s-1.04-.78-1.04-1.26v-.96c0-.43.39-.83.87-.83h.35m0-.43h-.35c-.7,0-1.3.57-1.3,1.26v.96c0,.7.74,1.7,1.48,1.7s1.48-1,1.48-1.7v-.96c0-.7-.57-1.26-1.3-1.26Z" fill="#f2a124"/></g></svg>