<svg id="Ebene_1" data-name="Ebene 1" xmlns="http://www.w3.org/2000/svg" viewBox="0 0 16 16"><path d="M0,0H16V16H0Z" fill="#fff"/><path d="M.74957,1.65587H15.25043V3.46848H.74957Zm0,3.62522H15.25043V7.0937H.74957Zm0,3.62521H15.25043v1.81261H.74957Zm0,3.62522H15.25043v1.81261H.74957Z" fill="#b9b9b9"/><circle cx="11.03569" cy="10.71891" r="2.10488" fill="#fff"/><path d="M15.61563,9.62445l-.73878-.1606a4.02079,4.02079,0,0,0-.23775-.57334l.409-.63618a.28729.28729,0,0,0-.0385-.35839L13.85866,6.745a.28728.28728,0,0,0-.35839-.03851l-.63618.409a4.01968,4.01968,0,0,0-.57334-.23776l-.1606-.73878a.2872.2872,0,0,0-.28065-.22616H10.22189a.2872.2872,0,0,0-.28065.22616l-.16061.73878a4.01957,4.01957,0,0,0-.57333.23776l-.63619-.409a.28728.28728,0,0,0-.35839.03851L7.0618,7.89594a.28729.28729,0,0,0-.0385.35839l.409.63618a4.02079,4.02079,0,0,0-.23775.57334l-.73878.1606a.28727.28727,0,0,0-.22617.28066v1.6276a.28727.28727,0,0,0,.22617.28066l.73878.1606a4.02079,4.02079,0,0,0,.23775.57334l-.409.63618a.28729.28729,0,0,0,.0385.35839L8.21272,14.6928a.28727.28727,0,0,0,.35839.0385l.63619-.409a4.01957,4.01957,0,0,0,.57333.23776l.16061.73878a.2872.2872,0,0,0,.28065.22616H11.8495a.2872.2872,0,0,0,.28065-.22616l.1606-.73878a4.01968,4.01968,0,0,0,.57334-.23776l.63618.409a.28717.28717,0,0,0,.35839-.0385l1.15093-1.15092a.28729.28729,0,0,0,.0385-.35839l-.409-.63618a4.02079,4.02079,0,0,0,.23775-.57334l.73878-.1606a.28728.28728,0,0,0,.22617-.28066V9.90511A.28728.28728,0,0,0,15.61563,9.62445ZM12.759,10.71891A1.72331,1.72331,0,1,1,11.03569,8.9956,1.7253,1.7253,0,0,1,12.759,10.71891Z" fill="#79a547"/></svg>