<?xml version="1.0" encoding="UTF-8"?>
<svg id="Ebene_2" data-name="Ebene 2" xmlns="http://www.w3.org/2000/svg" viewBox="0 0 14.53 10.41">
  <defs>
    <style>
      .cls-1 {
        fill: #fff;
      }

      .cls-2 {
        fill: #f2a124;
      }

      .cls-3 {
        fill: #ffc946;
      }

      .cls-4 {
        fill: #ffd400;
      }

      .cls-5 {
        fill: #8b8b8b;
      }

      .cls-6 {
        fill: #212121;
        isolation: isolate;
        opacity: .15;
      }
    </style>
  </defs>
  <g id="Ebene_1-2" data-name="Ebene 1">
    <g>
      <g>
        <path class="cls-5" d="m9.99,6.86c-.71-.26-1.21-.58-1.67-.85.04.11.04.21-.04.26-.5.69-1.55.63-2.01,0-.04-.05-.04-.16,0-.26-.5.26-1,.58-1.72.85,0,0-.59.42-.63,2.06h6.7c-.04-1.69-.63-2.06-.63-2.06Z"/>
        <g>
          <path class="cls-3" d="m3.8,7.15v-.24c.05-1.34.66-1.73.73-1.77.56-.17.95-.34,1.33-.51l.24-.1c.06-.16.11-.38.13-.75-.34-.38-.56-.86-.56-1.26v-.89c0-.76.66-1.4,1.44-1.4h.32c.81,0,1.44.62,1.44,1.4v.89c0,.39-.2.85-.53,1.22.03.42.1.65.14.8l.08.03c.38.18.82.38,1.39.55.11.05.73.4.77,1.79v.24s-6.92,0-6.92,0Z"/>
          <path class="cls-1" d="m7.43.46c.69,0,1.21.52,1.21,1.17v.89c0,.36-.22.81-.53,1.14.03.62.14.89.19,1.05.44.2.92.44,1.59.64,0,0,.56.28.6,1.57h-6.45c.04-1.25.6-1.57.6-1.57.68-.2,1.16-.44,1.64-.64.06-.15.17-.42.18-1.01-.33-.33-.57-.8-.57-1.17v-.89c0-.65.56-1.17,1.21-1.17h.32m0-.46h-.32c-.91,0-1.67.75-1.67,1.63v.89c0,.43.21.94.56,1.34-.01.23-.05.38-.08.49-.05.02-.1.04-.15.06-.37.16-.76.33-1.25.48l-.05.02-.05.03c-.08.05-.79.49-.84,1.96l-.02.48h7.41v-.48c-.06-1.49-.74-1.9-.88-1.97l-.04-.02h-.04c-.55-.17-.95-.36-1.34-.54-.04-.12-.07-.3-.1-.55.32-.4.52-.88.52-1.3v-.89c0-.92-.73-1.63-1.67-1.63h0Z"/>
        </g>
        <g>
          <path class="cls-5" d="m9.95,5.5c-.71-.26-1.21-.58-1.67-.85.04.11.04.21-.04.26-.5.69-1.55.63-2.01,0-.04-.05-.04-.16,0-.26-.5.26-1,.58-1.72.85,0,0-.59.42-.63,2.06h6.7c-.04-1.69-.63-2.06-.63-2.06Z"/>
          <path class="cls-6" d="m4.44,6.51c.08-.52.28-.73.36-.81.44-.12.81-.28,1.13-.44.04,0,.08-.04.12-.04.28.28.73.44,1.21.44s.93-.16,1.21-.44c.04,0,.08.04.12.04.32.16.69.28,1.13.44.08.04.24.28.32.81l.04.4h.4c-.04-1.29-.6-1.57-.6-1.57-.69-.2-1.17-.44-1.61-.65.04.08.04.16-.04.2-.24.24-.6.36-.97.36s-.77-.12-.97-.36c-.04-.04-.04-.12,0-.2-.48.2-.97.44-1.65.65,0,0-.56.32-.6,1.57h.4v-.4Z"/>
          <path class="cls-4" d="m7.23,4.09c-.28,0-.56-.18-.81-.45,0,1.08-.32,1.17-.16,1.34.44.54,1.45.58,1.94,0,.16-.18-.12-.27-.16-1.34-.24.27-.52.45-.81.45Z"/>
          <path class="cls-2" d="m6.11,4.78s.08-.04.12-.04c-.04.09-.04.17,0,.22s.12.13.2.17l.12-.04.08-.17v-.04c.04-.13.12-.44.16-.87-.16-.13-.28-.22-.4-.35,0,.65-.12.92-.16,1.09-.04,0-.08.04-.12.04Zm1.77.09l.04.22.12.04c.08-.04.12-.09.2-.17.04-.04.04-.13.04-.22-.04-.17-.16-.44-.16-1.09-.12.13-.24.22-.4.31.04.44.12.7.16.87v.04Z"/>
          <path class="cls-4" d="m7.23,4.09c-.69,0-1.37-.93-1.37-1.57v-.89c0-.65.56-1.17,1.21-1.17h.32c.69,0,1.21.52,1.21,1.17v.89c0,.65-.69,1.57-1.37,1.57Z"/>
          <path class="cls-2" d="m7.39.87c.44,0,.81.32.81.77v.89c0,.44-.52,1.17-.97,1.17s-.97-.73-.97-1.17v-.89c0-.4.36-.77.81-.77h.32m0-.4h-.32c-.65,0-1.21.52-1.21,1.17v.89c0,.65.69,1.57,1.37,1.57s1.37-.93,1.37-1.57v-.89c0-.65-.52-1.17-1.21-1.17Z"/>
        </g>
      </g>
      <g>
        <g>
          <path class="cls-3" d="m.24,10.18v-.24c.05-1.34.66-1.73.73-1.76.56-.17.95-.34,1.33-.51l.24-.1c.06-.16.12-.38.13-.75-.34-.38-.56-.86-.56-1.26v-.89c0-.76.66-1.4,1.44-1.4h.32c.81,0,1.44.62,1.44,1.4v.89c0,.38-.2.85-.53,1.22.03.42.1.65.14.8l.08.04c.38.18.81.38,1.38.54.11.05.73.4.77,1.79v.24S.24,10.18.24,10.18Z"/>
          <path class="cls-1" d="m3.87,3.49c.69,0,1.21.52,1.21,1.17v.89c0,.36-.22.81-.53,1.14.03.62.14.89.19,1.05.44.2.92.44,1.59.64,0,0,.56.28.6,1.57H.48c.04-1.25.6-1.57.6-1.57.68-.2,1.16-.44,1.64-.64.06-.15.17-.42.18-1.01-.33-.33-.57-.8-.57-1.17v-.89c0-.65.56-1.17,1.21-1.17h.32m0-.46h-.32c-.91,0-1.67.75-1.67,1.63v.89c0,.43.21.94.56,1.34-.01.23-.05.38-.08.49-.05.02-.1.04-.15.06-.37.16-.76.33-1.25.48l-.05.02-.05.03c-.08.05-.79.49-.84,1.96l-.02.48h7.41v-.48c-.06-1.49-.74-1.9-.88-1.97l-.04-.02h-.04c-.55-.17-.95-.36-1.34-.54-.04-.12-.07-.3-.1-.55.32-.4.52-.88.52-1.3v-.89c0-.92-.73-1.63-1.67-1.63h0Z"/>
        </g>
        <path class="cls-5" d="m6.32,8.37c-.69-.2-1.17-.44-1.61-.65.04.08.04.16-.04.2-.48.52-1.49.48-1.94,0-.04-.04-.04-.12,0-.2-.48.2-.97.44-1.65.65,0,0-.56.32-.6,1.57h6.45c-.04-1.29-.6-1.57-.6-1.57Z"/>
        <path class="cls-6" d="m.92,9.54c.08-.52.28-.73.36-.81.44-.12.81-.28,1.13-.44.04,0,.08-.04.12-.04.28.28.73.44,1.21.44s.93-.16,1.21-.44c.04,0,.08.04.12.04.32.16.69.28,1.13.44.08.04.24.28.32.81l.04.4h.4c-.04-1.29-.6-1.57-.6-1.57-.69-.2-1.17-.44-1.61-.65.04.08.04.16-.04.2-.24.24-.6.36-.97.36s-.77-.12-.97-.36c-.04-.04-.04-.12,0-.2-.48.2-.97.44-1.65.65,0,0-.56.32-.6,1.57h.4v-.4Z"/>
        <path class="cls-4" d="m3.7,7.12c-.28,0-.56-.16-.81-.4,0,.97-.32,1.05-.16,1.21.44.48,1.45.52,1.94,0,.16-.16-.12-.24-.16-1.21-.24.24-.52.4-.81.4Z"/>
        <path class="cls-2" d="m2.62,7.77s.08-.04.12-.04c-.04.08-.04.16,0,.2s.12.12.2.16l.12-.04.08-.16v-.04c.04-.12.12-.4.16-.81-.16-.12-.28-.2-.4-.32,0,.6-.12.85-.16,1.01-.04,0-.08.04-.12.04Zm1.69.08l.04.2.12.04c.08-.04.12-.08.2-.16.04-.04.04-.12.04-.2-.04-.16-.16-.4-.16-1.01-.12.12-.24.2-.4.28.04.4.12.65.16.81v.04Z"/>
        <path class="cls-4" d="m3.7,7.12c-.69,0-1.37-.93-1.37-1.57v-.89c0-.65.56-1.17,1.21-1.17h.32c.69,0,1.21.52,1.21,1.17v.89c0,.65-.69,1.57-1.37,1.57Z"/>
        <path class="cls-2" d="m3.87,3.9c.44,0,.81.32.81.77v.89c0,.44-.52,1.17-.97,1.17s-.97-.73-.97-1.17v-.89c0-.4.36-.77.81-.77h.32m0-.4h-.32c-.65,0-1.21.52-1.21,1.17v.89c0,.65.69,1.57,1.37,1.57s1.37-.93,1.37-1.57v-.89c0-.65-.52-1.17-1.21-1.17Z"/>
      </g>
      <g>
        <g>
          <path class="cls-3" d="m7.37,10.18v-.24c.05-1.34.66-1.73.73-1.76.56-.17.95-.34,1.33-.51l.24-.1c.06-.16.11-.38.13-.75-.34-.38-.56-.86-.56-1.26v-.89c0-.76.66-1.4,1.44-1.4h.32c.81,0,1.44.62,1.44,1.4v.89c0,.38-.2.85-.53,1.22.03.42.1.65.14.8l.08.04c.38.18.81.38,1.38.54.11.05.73.4.77,1.79v.24s-6.92,0-6.92,0Z"/>
          <path class="cls-1" d="m10.99,3.49c.69,0,1.21.52,1.21,1.17v.89c0,.36-.22.81-.53,1.14.03.62.14.89.19,1.05.44.2.92.44,1.59.64,0,0,.56.28.6,1.57h-6.45c.04-1.25.6-1.57.6-1.57.68-.2,1.16-.44,1.64-.64.06-.15.17-.42.18-1.01-.33-.33-.57-.8-.57-1.17v-.89c0-.65.56-1.17,1.21-1.17h.32m0-.46h-.32c-.91,0-1.67.75-1.67,1.63v.89c0,.43.21.94.56,1.34-.01.23-.05.38-.08.49-.05.02-.1.04-.15.06-.37.16-.76.33-1.25.48l-.05.02-.05.03c-.08.05-.79.49-.84,1.96l-.02.48h7.41v-.48c-.06-1.49-.74-1.9-.88-1.97l-.04-.02h-.04c-.55-.17-.95-.36-1.34-.54-.04-.12-.07-.3-.1-.55.32-.4.52-.88.52-1.3v-.89c0-.92-.73-1.63-1.67-1.63h0Z"/>
        </g>
        <g>
          <path class="cls-5" d="m13.41,8.37c-.69-.2-1.17-.44-1.61-.65.04.08.04.16-.04.2-.48.52-1.49.48-1.94,0-.04-.04-.04-.12,0-.2-.48.2-.97.44-1.65.65,0,0-.56.32-.6,1.57h6.45c-.04-1.29-.6-1.57-.6-1.57Z"/>
          <path class="cls-6" d="m8.01,9.54c.08-.52.28-.73.36-.81.44-.12.81-.28,1.13-.44.04,0,.08-.04.12-.04.28.28.73.44,1.21.44s.93-.16,1.21-.44c.04,0,.08.04.12.04.32.16.69.28,1.13.44.08.04.24.28.32.81l.04.4h.4c-.04-1.29-.6-1.57-.6-1.57-.69-.2-1.17-.44-1.61-.65.04.08.04.16-.04.2-.24.24-.6.36-.97.36s-.77-.12-.97-.36c-.04-.04-.04-.12,0-.2-.48.2-.97.44-1.65.65,0,0-.56.32-.6,1.57h.4v-.4Z"/>
          <path class="cls-4" d="m10.79,7.12c-.28,0-.56-.16-.81-.4,0,.97-.32,1.05-.16,1.21.44.48,1.45.52,1.94,0,.16-.16-.12-.24-.16-1.21-.24.24-.52.4-.81.4Z"/>
          <path class="cls-2" d="m9.7,7.77s.08-.04.12-.04c-.04.08-.04.16,0,.2s.12.12.2.16l.12-.04.08-.16v-.04c.04-.12.12-.4.16-.81-.16-.12-.28-.2-.4-.32,0,.6-.12.85-.16,1.01-.04,0-.08.04-.12.04Zm1.69.08l.04.2.12.04c.08-.04.12-.08.2-.16.04-.04.04-.12.04-.2-.04-.16-.16-.4-.16-1.01-.12.12-.24.2-.4.28.04.4.12.65.16.81v.04Z"/>
          <path class="cls-4" d="m10.79,7.12c-.69,0-1.37-.93-1.37-1.57v-.89c0-.65.56-1.17,1.21-1.17h.32c.69,0,1.21.52,1.21,1.17v.89c0,.65-.69,1.57-1.37,1.57Z"/>
          <path class="cls-2" d="m10.95,3.9c.44,0,.81.32.81.77v.89c0,.44-.52,1.17-.97,1.17s-.97-.73-.97-1.17v-.89c0-.4.36-.77.81-.77h.32m0-.4h-.32c-.65,0-1.21.52-1.21,1.17v.89c0,.65.69,1.57,1.37,1.57s1.37-.93,1.37-1.57v-.89c0-.65-.52-1.17-1.21-1.17Z"/>
        </g>
      </g>
    </g>
  </g>
</svg>