<svg id="Ebene_1" data-name="Ebene 1" xmlns="http://www.w3.org/2000/svg" viewBox="0 0 16 16"><path d="M11.09834,8.85347h.654a.448.448,0,0,0,.44816-.44811V5.60874a.09906.09906,0,0,0-.09914-.0989h-.78667a.099.099,0,0,0-.09913.0989v1.073h-.86911v-1.073a.099.099,0,0,0-.09911-.0989H9.46069a.09906.09906,0,0,0-.09914.0989v1.073H8.49249v-1.073a.09905.09905,0,0,0-.09912-.0989H8.23219l-.46345,0h-.162a.09906.09906,0,0,0-.09915.0989v1.073H6.63849V5.60874a.09906.09906,0,0,0-.09917-.0989H5.75265a.09907.09907,0,0,0-.09911.0989v1.073H4.78448v-1.073a.09905.09905,0,0,0-.09913-.0989h-.7867a.09907.09907,0,0,0-.09911.0989V8.40536a.448.448,0,0,0,.4481.44811h.65409l-1.1004,6.172a.44776.44776,0,0,0,.44086.52686h7.51566a.44773.44773,0,0,0,.44081-.52686Zm-2.031,4.18083H6.93317V11.094a1.06711,1.06711,0,0,1,2.13421,0Z" fill="#b9b9b9"/><rect x="7.75669" y="3.98632" width="0.48662" height="1.52349" fill="#b9b9b9"/><path d="M7.75669.45669V4.19792a.091.091,0,0,0,.11961.08638l5.30545-1.75711L7.89082.36659A.09733.09733,0,0,0,7.75669.45669Z" fill="#79a547"/></svg>