<svg id="Ebene_1" data-name="Ebene 1" xmlns="http://www.w3.org/2000/svg" viewBox="0 0 16 16"><polygon points="11.535 15.154 4.516 15.154 4.516 2.858 11.535 0.809 11.535 15.154" fill="#fff" stroke="#b9b9b9" stroke-miterlimit="10" stroke-width="0.5"/><path d="M11.728,15.34707H4.32273V2.71276L11.728.55049Zm-7.01839-.38688h6.6315V1.06659L4.70962,3.00292Z" fill="#b9b9b9" stroke="#b9b9b9" stroke-miterlimit="10" stroke-width="0.5"/><rect x="6.09855" y="4.33894" width="1.21507" height="1.21507" fill="#b9b9b9"/><rect x="8.73725" y="4.33894" width="1.21507" height="1.21507" fill="#b9b9b9"/><rect x="6.09855" y="6.52425" width="1.21507" height="1.21507" fill="#b9b9b9"/><rect x="8.73725" y="6.52425" width="1.21507" height="1.21507" fill="#b9b9b9"/><rect x="6.09855" y="8.70956" width="1.21507" height="1.21507" fill="#b9b9b9"/><rect x="8.73725" y="8.70956" width="1.21507" height="1.21507" fill="#b9b9b9"/><rect x="6.09855" y="10.89487" width="1.21507" height="1.21507" fill="#b9b9b9"/><rect x="8.73725" y="10.89487" width="1.21507" height="1.21507" fill="#b9b9b9"/><rect x="7.02452" y="13.15182" width="2.00183" height="2.00183" fill="#b9b9b9"/><rect x="13.49923" y="11.49938" width="0.38689" height="3.86284" fill="#b9b9b9" stroke="#b9b9b9" stroke-miterlimit="10" stroke-width="0.5"/><circle cx="13.69273" cy="10.17712" r="1.45083" fill="#79a547"/><path d="M13.69267,11.82144A1.64428,1.64428,0,1,1,15.337,10.17717,1.64623,1.64623,0,0,1,13.69267,11.82144Zm0-2.90166a1.25739,1.25739,0,1,0,1.25739,1.25739A1.25884,1.25884,0,0,0,13.69267,8.91978Z" fill="#79a547"/><circle cx="13.69273" cy="7.49449" r="1.13508" fill="#79a547"/><path d="M13.69267,8.82306a1.32851,1.32851,0,1,1,1.32861-1.32861A1.33007,1.33007,0,0,1,13.69267,8.82306Zm0-2.27014a.94163.94163,0,1,0,.94172.94153A.94264.94264,0,0,0,13.69267,6.55292Z" fill="#79a547"/><rect x="1.84895" y="11.49938" width="0.38689" height="3.86284" fill="#b9b9b9" stroke="#b9b9b9" stroke-miterlimit="10" stroke-width="0.5"/><circle cx="2.04239" cy="10.04855" r="1.45083" fill="#79a547"/><path d="M2.04239,11.69279a1.64428,1.64428,0,1,1,1.64428-1.64427A1.64623,1.64623,0,0,1,2.04239,11.69279Zm0-2.90166a1.25739,1.25739,0,1,0,1.25739,1.25739A1.25884,1.25884,0,0,0,2.04239,8.79113Z" fill="#79a547"/></svg>